HIERARCHY
ROOT Hips
{
	OFFSET 0.00000 0.00000 0.00000
	CHANNELS 6 Xposition Yposition Zposition Zrotation Yrotation Xrotation 
	JOINT LHipJoint
	{
		OFFSET 0 0 0
		CHANNELS 3 Zrotation Yrotation Xrotation
		JOINT LeftHip
		{
			OFFSET 1.26600 -1.82114 0.91038
			CHANNELS 3 Zrotation Yrotation Xrotation
			JOINT LeftKnee
			{
				OFFSET 2.50076 -6.87080 0.00000
				CHANNELS 3 Zrotation Yrotation Xrotation
				JOINT LeftAnkle
				{
					OFFSET 2.57364 -7.07102 0.00000
					CHANNELS 3 Zrotation Yrotation Xrotation
					JOINT LeftToe
					{
						OFFSET 0.13572 -0.37290 1.97004
						CHANNELS 3 Zrotation Yrotation Xrotation
						End Site
						{
							OFFSET 0.00000 -0.00000 1.01383
						}
					}
				}
			}
		}
	}
	JOINT RHipJoint
	{
		OFFSET 0 0 0
		CHANNELS 3 Zrotation Yrotation Xrotation
		JOINT RightHip
		{
			OFFSET -1.20803 -1.82114 0.91038
			CHANNELS 3 Zrotation Yrotation Xrotation
			JOINT RightKnee
			{
				OFFSET -2.54916 -7.00377 0.00000
				CHANNELS 3 Zrotation Yrotation Xrotation
				JOINT RightAnkle
				{
					OFFSET -2.56374 -7.04382 0.00000
					CHANNELS 3 Zrotation Yrotation Xrotation
					JOINT RightToe
					{
						OFFSET -0.23520 -0.64621 2.09921
						CHANNELS 3 Zrotation Yrotation Xrotation
						End Site
						{
							OFFSET -0.00000 -0.00000 1.10065
						}
					}
				}
			}
		}
	}
	JOINT lowerback
	{
		OFFSET 0 0 0
		CHANNELS 3 Zrotation Yrotation Xrotation
		JOINT Chest
		{
			OFFSET 0.05492 2.10797 -0.12074
			CHANNELS 3 Zrotation Yrotation Xrotation
			JOINT Chest2
			{
				OFFSET 0.04577 2.11592 -0.04483
				CHANNELS 3 Zrotation Yrotation Xrotation
				JOINT lowerneck
				{
					OFFSET 0 0 0
					CHANNELS 3 Zrotation Yrotation Xrotation
					JOINT Neck
					{
						OFFSET -0.10759 1.80167 0.15770
						CHANNELS 3 Zrotation Yrotation Xrotation
						JOINT Head
						{
							OFFSET 0.09237 1.77509 -0.40848
							CHANNELS 3 Zrotation Yrotation Xrotation
							End Site
							{
								OFFSET 0.03805 1.84093 -0.15754
							}
						}
					}
				}
				JOINT LeftCollar
				{
					OFFSET 0 0 0
					CHANNELS 3 Zrotation Yrotation Xrotation
					JOINT LeftShoulder
					{
						OFFSET 3.42372 1.09575 -0.28209
CHANNELS 3 Zrotation Xrotation Yrotation
						JOINT LeftElbow
						{
OFFSET 0 -4.956810 0.000000
CHANNELS 3 Zrotation Xrotation Yrotation
							JOINT LeftWrist
							{
OFFSET 0 -3.409150 0.000000
CHANNELS 3 Zrotation Xrotation Yrotation
								JOINT lhand
								{
									OFFSET 0 0 0
CHANNELS 3 Zrotation Xrotation Yrotation
									JOINT LFingers
									{
OFFSET 0 -0.616400 0.000000
CHANNELS 3 Zrotation Xrotation Yrotation
										End Site
										{
OFFSET 0 -0.496960 0.000000
										}
									}
								}
								JOINT LThumb
								{
OFFSET 0 0.000000 0.000000
CHANNELS 3 Zrotation Xrotation Yrotation
									End Site
									{
OFFSET 0 -0.504550 0.504550
									}
								}
							}
						}
					}
				}
				JOINT RightCollar
				{
					OFFSET 0 0 0
					CHANNELS 3 Zrotation Yrotation Xrotation
					JOINT RightShoulder
					{
						OFFSET -3.24731 1.15872 -0.32221
CHANNELS 3 Zrotation Xrotation Yrotation
						JOINT RightElbow
						{
OFFSET 0 -5.352000 0.000000
CHANNELS 3 Zrotation Xrotation Yrotation
							JOINT RightWrist
							{
OFFSET 0 -3.437210 -0.000000
CHANNELS 3 Zrotation Xrotation Yrotation
								JOINT rhand
								{
									OFFSET 0 0 0
CHANNELS 3 Zrotation Xrotation Yrotation
									JOINT RFingers
									{
OFFSET 0 -0.720090 0.000000
CHANNELS 3 Zrotation Xrotation Yrotation
										End Site
										{
OFFSET 0 -0.580560 0.000000
										}
									}
								}
								JOINT RThumb
								{
OFFSET 0 0.000000 0.000000
CHANNELS 3 Zrotation Xrotation Yrotation
									End Site
									{
OFFSET 0 -0.589420 0.589420
									}
								}
							}
						}
					}
				}
			}
		}
	}
}
MOTION
Frames: 11
Frame Time: 0.008333333333333333
-13.226895 17.346273 21.828191 -8.607501 44.597484 -3.434438 0.000000 0.000000 0.000000 -16.551207 1.477373 -15.235062 3.892826 12.016413 35.790185 1.828713 1.670847 -26.208762 0.207223 2.929660 8.083156 0.000000 0.000000 0.000000 24.201533 2.793786 -14.661092 -3.837388 -11.940828 35.523062 -0.961285 13.580723 -18.646766 -0.730676 -5.457545 15.219375 -1.861754 -4.759958 4.025000 2.837274 -6.371645 0.205356 4.269108 -3.166098 -1.508495 -18.759131 -17.663777 4.307001 15.790815 -25.166538 4.115276 5.988655 -12.662306 4.901399 0.000000 0.000000 0.000000 1.334628 4.823117 -17.597355 16.285325 -25.905962 3.769752 20.139525 2.794871 -18.866537 0.000000 0.000000 0.000000 -7.125000 0.000000 0.000000 -7.994388 49.811649 0.954270 0.000000 0.000000 0.000000 -3.058737 0.344665 18.020929 -14.860031 -23.950821 -3.168956 -21.443904 -16.793116 -12.901423 0.000000 0.000000 0.000000 7.125000 0.000000 0.000000 4.041610 16.177169 2.762547
-13.218920 17.353343 21.765345 -9.066591 46.803198 -3.944539 0.000000 0.000000 0.000000 -16.530521 -0.254372 -14.890291 3.954402 12.099445 36.084824 1.916048 -0.371015 -26.103862 0.792561 5.527479 15.455827 0.000000 0.000000 0.000000 24.187368 2.226013 -14.987751 -3.850688 -11.959012 35.587236 -1.076594 12.070105 -19.156700 -0.772104 -5.609193 15.654916 -1.698099 -5.025794 4.238121 2.923354 -6.718473 0.484474 4.283881 -3.346971 -1.318149 -18.725104 -17.794827 5.529271 16.596039 -25.427623 2.501165 6.355887 -12.853844 4.369751 0.000000 0.000000 0.000000 0.995093 4.388532 -18.397715 16.970560 -26.818923 4.074101 19.674465 2.567192 -20.360005 0.000000 0.000000 0.000000 -7.125000 0.000000 0.000000 -8.920375 51.275083 1.388433 0.000000 0.000000 0.000000 -3.280062 -0.010751 17.811928 -14.992401 -24.135500 -3.222816 -21.081475 -16.569917 -13.035655 0.000000 0.000000 0.000000 7.125000 0.000000 0.000000 4.297055 16.070358 2.948087
-13.219551 17.359328 21.696371 -9.890756 49.621779 -4.690293 0.000000 0.000000 0.000000 -16.329218 0.160752 -15.309239 3.802871 11.893370 35.355885 1.674320 -1.742764 -23.982104 0.399754 4.053313 11.227472 0.000000 0.000000 0.000000 24.262029 3.221871 -15.739526 -4.151471 -12.359146 37.014761 -1.335095 9.645572 -20.765669 -0.923110 -6.103514 17.090437 -1.519798 -5.395028 4.775635 3.165571 -7.195020 0.524444 4.508350 -3.581597 -1.525962 -18.694694 -18.241527 6.143090 16.509996 -26.067466 2.057394 6.308170 -13.199116 4.230973 0.000000 0.000000 0.000000 0.651847 4.658146 -19.152580 17.953787 -28.097823 4.527589 19.151951 1.701499 -20.483279 0.000000 0.000000 0.000000 -7.125000 0.000000 0.000000 -9.476677 51.312895 1.485601 0.000000 0.000000 0.000000 -3.744839 -0.015449 18.262999 -14.782583 -23.842352 -3.137525 -21.884633 -17.060923 -13.670888 0.000000 0.000000 0.000000 7.125000 0.000000 0.000000 3.772049 15.313289 2.647762
-13.221606 17.330414 21.637252 -6.901559 52.857048 -2.679368 0.000000 0.000000 0.000000 -18.483568 1.844832 -15.845531 3.585895 11.587826 34.289348 1.355526 -7.369679 -20.816112 0.985156 6.317272 17.707898 0.000000 0.000000 0.000000 21.789440 4.411845 -16.503417 -4.818550 -13.176118 40.032049 -1.591713 5.849884 -22.672109 -0.665774 -5.196357 14.474458 -3.352228 -5.459362 5.326411 2.492078 -7.405987 0.631256 4.881186 -3.680155 -1.561292 -18.194514 -18.824892 7.022300 15.993100 -26.854107 1.496588 6.115597 -13.626567 3.914406 0.000000 0.000000 0.000000 0.703232 4.442321 -20.209186 18.293770 -28.531614 4.688711 19.793584 0.168823 -18.815464 0.000000 0.000000 0.000000 -7.125000 0.000000 0.000000 -8.313047 49.705102 0.968322 0.000000 0.000000 0.000000 -3.556890 -0.087384 17.206043 -14.466544 -23.397726 -3.010952 -21.318134 -16.074750 -13.282593 0.000000 0.000000 0.000000 7.125000 0.000000 0.000000 4.143959 15.784807 2.867922
-13.231712 17.334662 21.638700 -5.932033 56.465655 -2.393146 0.000000 0.000000 0.000000 -19.335256 2.108714 -15.580170 3.455903 11.398888 33.637351 1.156484 -9.049150 -19.315162 0.403104 4.075387 11.288974 0.000000 0.000000 0.000000 21.116450 7.635371 -16.238064 -5.405898 -13.826814 42.548049 -1.986584 6.808871 -25.365680 -0.519644 -4.618228 12.823044 -4.075286 -5.634781 5.682331 2.211879 -7.695618 0.866464 5.023504 -3.829033 -1.428258 -18.349146 -18.317459 6.418931 14.935081 -26.222706 3.914479 5.768804 -13.281551 4.510010 0.000000 0.000000 0.000000 1.155335 4.328747 -20.828628 18.279938 -28.513789 4.682248 17.980785 0.393764 -20.032385 0.000000 0.000000 0.000000 -7.125000 0.000000 0.000000 -10.466181 50.659791 1.474116 0.000000 0.000000 0.000000 -3.135011 0.019044 16.678117 -14.081962 -22.851777 -2.859933 -21.798898 -16.369570 -13.279793 0.000000 0.000000 0.000000 7.125000 0.000000 0.000000 3.812869 15.738753 2.641630
-13.225353 17.321219 21.724331 -6.889594 61.635981 -3.988885 0.000000 0.000000 0.000000 -18.770125 1.379871 -14.942053 3.481406 11.436300 33.765968 0.848002 -12.949765 -17.560508 0.347363 3.744241 10.364028 0.000000 0.000000 0.000000 21.797197 12.740371 -14.073266 -5.245358 -13.654871 41.872174 -1.484575 17.738134 -23.500627 -0.428511 -4.200751 11.642241 -3.855450 -5.886480 5.852317 2.294040 -8.018759 0.878896 5.020392 -3.988971 -1.490834 -17.524396 -15.470297 1.453460 10.683005 -21.848882 13.525864 4.317407 -10.995768 7.014455 0.000000 0.000000 0.000000 1.505445 3.939508 -21.131920 17.070703 -26.950868 4.119298 17.263439 0.192165 -19.171805 0.000000 0.000000 0.000000 -7.125000 0.000000 0.000000 -10.862588 49.673938 1.264993 0.000000 0.000000 0.000000 -2.763041 0.601415 15.226806 -13.378649 -21.839516 -2.592438 -21.606613 -14.893170 -12.848874 0.000000 0.000000 0.000000 7.125000 0.000000 0.000000 3.927027 16.216967 2.680419
-13.196401 17.291704 21.837700 -7.236768 67.949436 -4.726338 0.000000 0.000000 0.000000 -18.821854 -1.101814 -14.454941 3.600629 11.609098 34.362784 0.116599 -17.851903 -13.621108 3.176545 10.643360 31.386369 0.000000 0.000000 0.000000 22.127131 13.255831 -13.162956 -4.766865 -13.116305 39.805372 -0.919036 17.000602 -19.506304 -0.936970 -6.151421 17.228782 -4.173878 -6.112744 5.693014 2.598757 -8.332886 0.577176 5.521276 -4.137671 -1.588531 -14.059135 -10.459176 -5.804430 5.232334 -13.594056 26.188931 2.589819 -6.997347 10.750064 0.000000 0.000000 0.000000 1.141065 2.718742 -20.800337 15.806862 -25.257846 3.563220 19.010755 3.179142 -20.327731 0.000000 0.000000 0.000000 -7.125000 0.000000 0.000000 -9.561825 51.130169 1.455909 0.000000 0.000000 0.000000 -2.851675 1.963406 14.044415 -13.488267 -21.998343 -2.633386 -21.039035 -14.518439 -12.752303 0.000000 0.000000 0.000000 7.125000 0.000000 0.000000 4.315753 16.374763 2.932466
-13.160493 17.294404 21.941060 -12.084189 72.746788 -10.077097 0.000000 0.000000 0.000000 -17.454116 -2.123426 -13.649987 3.623443 11.641729 34.476065 -0.206625 -19.749638 -12.092838 2.252606 9.369892 26.962179 0.000000 0.000000 0.000000 23.726535 9.557045 -12.272241 -4.574862 -12.888388 38.952106 -1.154302 14.777072 -20.425151 -1.313218 -7.256160 20.477681 -2.300509 -5.190854 5.365446 3.137963 -6.956891 1.172639 4.918349 -3.470962 -1.114414 -11.387407 -5.345431 -10.218374 4.173197 -5.750412 33.090787 2.844930 -3.186244 13.331778 0.000000 0.000000 0.000000 1.907901 1.743124 -24.376326 16.907099 -26.735026 4.045493 19.390240 1.127671 -21.120718 0.000000 0.000000 0.000000 -7.125000 0.000000 0.000000 -9.462806 52.006841 1.640757 0.000000 0.000000 0.000000 -2.295702 2.931610 11.901666 -14.212801 -23.038080 -2.910899 -21.855578 -15.712371 -12.885258 0.000000 0.000000 0.000000 7.125000 0.000000 0.000000 3.756670 16.153191 2.568540
-13.130582 17.301776 21.980820 -12.619726 76.309442 -11.064384 0.000000 0.000000 0.000000 -17.997686 -2.970432 -13.213158 3.684894 11.728797 34.779130 -0.445322 -21.181906 -11.155286 2.122201 9.113915 26.153983 0.000000 0.000000 0.000000 23.019009 6.429352 -11.992004 -4.365163 -12.631017 38.002555 -1.097651 14.676113 -19.989066 -1.306065 -7.239621 20.427235 -0.699655 -3.738565 4.883442 3.186196 -4.929998 2.256539 3.897412 -2.468695 -0.064797 -9.926945 -2.430562 -11.619771 2.671830 -0.931377 34.356715 2.747767 -1.030340 13.682545 0.000000 0.000000 0.000000 2.261904 0.262244 -25.683343 18.918973 -29.316198 4.991958 19.696589 -0.893760 -19.824310 0.000000 0.000000 0.000000 -7.125000 0.000000 0.000000 -8.721977 50.728594 1.238829 0.000000 0.000000 0.000000 -2.337750 3.124969 11.730814 -14.778751 -23.837012 -3.135961 -22.246220 -16.748870 -12.747033 0.000000 0.000000 0.000000 7.125000 0.000000 0.000000 3.480395 16.261718 2.370987
-13.102325 17.318262 22.012339 -19.032966 78.757272 -17.211162 0.000000 0.000000 0.000000 -17.323571 -5.350475 -13.077836 3.802239 11.892524 35.352832 -0.396595 -21.316051 -11.718866 1.966441 8.795699 25.158400 0.000000 0.000000 0.000000 23.943476 4.813786 -11.917737 -4.154611 -12.363263 37.029621 -1.213970 13.778926 -20.583628 -1.358159 -7.373052 20.827169 2.232847 -2.082449 4.892698 3.273281 -2.572376 2.323534 2.241908 -1.253796 -0.298595 -8.832240 -1.824000 -11.255996 1.237598 0.472712 35.934837 2.239062 -0.417288 14.219355 0.000000 0.000000 0.000000 3.094711 1.409257 -27.162022 21.744762 -32.686546 6.447786 22.160744 -1.827980 -19.236836 0.000000 0.000000 0.000000 -7.125000 0.000000 0.000000 -6.126596 50.525907 0.837122 0.000000 0.000000 0.000000 -3.094057 4.509734 14.576248 -14.576010 -23.552088 -3.054574 -21.462056 -17.147965 -12.307694 0.000000 0.000000 0.000000 7.125000 0.000000 0.000000 4.006395 16.806333 2.682882
-13.034726 17.334451 22.068917 -15.602466 81.342837 -13.590880 0.000000 0.000000 0.000000 -18.609387 -5.844299 -12.884152 3.694749 11.742779 34.827825 -0.510073 -22.038720 -11.372357 1.733010 8.283550 23.580286 0.000000 0.000000 0.000000 22.566085 3.548231 -12.053807 -4.124007 -12.323612 36.886761 -1.291360 13.533858 -21.077323 -1.459168 -7.633125 21.606047 2.141137 -0.846950 4.295241 3.109818 -0.967641 2.626076 2.031089 -0.447977 0.307822 -9.095228 -2.094137 -10.873254 1.113362 0.255255 35.770266 2.206676 -0.515701 14.082207 0.000000 0.000000 0.000000 3.007821 2.074359 -26.387737 23.286221 -34.400240 7.299328 25.114266 -3.244507 -18.691021 0.000000 0.000000 0.000000 -7.125000 0.000000 0.000000 -3.066929 50.441662 0.412635 0.000000 0.000000 0.000000 -4.783064 3.104736 15.419828 -13.098576 -21.431459 -2.489190 -19.921927 -14.434096 -12.338508 0.000000 0.000000 0.000000 7.125000 0.000000 0.000000 5.077422 16.914779 3.394113
